<svg xmlns="http://www.w3.org/2000/svg" viewBox="0 0 400 300" fill="none">
  <!-- Background -->
  <ellipse cx="200" cy="200" rx="140" ry="90" fill="#F5F5F4" opacity="0.7"/>
  
  <!-- Character body (simple friendly figure) -->
  <ellipse cx="200" cy="180" rx="45" ry="55" fill="#3B76DD" opacity="0.3"/>
  
  <!-- Head -->
  <circle cx="200" cy="130" r="28" fill="#5B8DEF"/>
  
  <!-- Eyes (hopeful) -->
  <circle cx="192" cy="128" r="3" fill="#1C1917"/>
  <circle cx="208" cy="128" r="3" fill="#1C1917"/>
  
  <!-- Smile -->
  <path d="M 192 138 Q 200 143 208 138" stroke="#1C1917" stroke-width="2" fill="none" stroke-linecap="round"/>
  
  <!-- Magnifying glass -->
  <circle cx="260" cy="160" r="22" fill="none" stroke="#F59E0B" stroke-width="4"/>
  <line x1="275" y1="175" x2="295" y2="195" stroke="#F59E0B" stroke-width="4" stroke-linecap="round"/>
  
  <!-- Search sparkles -->
  <path d="M 240 140 L 244 144 L 240 148 L 236 144 Z" fill="#F59E0B" opacity="0.6"/>
  <path d="M 270 135 L 272 137 L 270 139 L 268 137 Z" fill="#F59E0B" opacity="0.6"/>
  <path d="M 255 120 L 257 122 L 255 124 L 253 122 Z" fill="#F59E0B" opacity="0.6"/>
  
  <!-- Job cards floating around -->
  <rect x="90" y="110" width="50" height="30" rx="4" fill="white" stroke="#D6D3D1" stroke-width="2" opacity="0.7"/>
  <rect x="290" y="130" width="50" height="30" rx="4" fill="white" stroke="#D6D3D1" stroke-width="2" opacity="0.7"/>
</svg>
