<svg xmlns="http://www.w3.org/2000/svg" viewBox="0 0 400 300" fill="none">
  <!-- Background blob -->
  <ellipse cx="200" cy="150" rx="130" ry="110" fill="#FEF3C7" opacity="0.5"/>
  
  <!-- Briefcase body -->
  <rect x="140" y="130" width="120" height="80" rx="8" fill="#3B76DD"/>
  <rect x="140" y="130" width="120" height="15" rx="4" fill="#2563EB"/>
  
  <!-- Briefcase handle -->
  <path d="M 185 130 Q 185 115 200 115 Q 215 115 215 130" stroke="#2563EB" stroke-width="6" fill="none" stroke-linecap="round"/>
  
  <!-- Lock -->
  <rect x="195" y="160" width="10" height="12" rx="2" fill="#FCD34D"/>
  <circle cx="200" cy="164" r="3" fill="#2563EB"/>
  
  <!-- Opportunity symbols -->
  <circle cx="100" cy="100" r="18" fill="#F59E0B" opacity="0.8"/>
  <path d="M 94 100 L 100 94 L 106 100 L 100 106 Z" fill="white"/>
  
  <circle cx="290" cy="180" r="15" fill="#5B8DEF" opacity="0.7"/>
  <path d="M 290 172 L 290 188 M 282 180 L 298 180" stroke="white" stroke-width="2.5" stroke-linecap="round"/>
  
  <!-- Arrow up (growth) -->
  <path d="M 280 120 L 280 90 M 270 100 L 280 90 L 290 100" stroke="#3B76DD" stroke-width="3" stroke-linecap="round" opacity="0.6"/>
</svg>
