<svg xmlns="http://www.w3.org/2000/svg" viewBox="0 0 400 300" fill="none">
  <!-- Background circle -->
  <circle cx="200" cy="150" r="120" fill="#EBF4FF" opacity="0.6"/>
  
  <!-- Books stack -->
  <rect x="140" y="140" width="60" height="8" rx="2" fill="#3B76DD"/>
  <rect x="145" y="130" width="55" height="8" rx="2" fill="#5B8DEF"/>
  <rect x="150" y="120" width="50" height="8" rx="2" fill="#3B76DD"/>
  
  <!-- Laptop -->
  <rect x="180" y="135" width="70" height="45" rx="3" fill="#F5F5F4" stroke="#3B76DD" stroke-width="2"/>
  <rect x="185" y="140" width="60" height="30" rx="1" fill="#3B76DD" opacity="0.2"/>
  <rect x="192" y="180" width="46" height="3" rx="1" fill="#D6D3D1"/>
  
  <!-- Documents floating -->
  <rect x="110" y="90" width="35" height="45" rx="3" fill="white" stroke="#3B76DD" stroke-width="1.5"/>
  <line x1="118" y1="100" x2="138" y2="100" stroke="#3B76DD" stroke-width="1.5" opacity="0.4"/>
  <line x1="118" y1="108" x2="138" y2="108" stroke="#3B76DD" stroke-width="1.5" opacity="0.4"/>
  <line x1="118" y1="116" x2="130" y2="116" stroke="#3B76DD" stroke-width="1.5" opacity="0.4"/>
  
  <!-- Sparkles -->
  <path d="M260 100 L265 105 L260 110 L255 105 Z" fill="#F59E0B" opacity="0.7"/>
  <path d="M130 170 L133 173 L130 176 L127 173 Z" fill="#F59E0B" opacity="0.7"/>
</svg>
